<?xml version="1.0" encoding="UTF-8" standalone="no"?>
<!DOCTYPE svg PUBLIC "-//W3C//DTD SVG 1.1//EN" "http://www.w3.org/Graphics/SVG/1.1/DTD/svg11.dtd">
<svg width="100%" height="100%" viewBox="0 0 16 16" version="1.1" xmlns="http://www.w3.org/2000/svg" xmlns:xlink="http://www.w3.org/1999/xlink" xml:space="preserve" xmlns:serif="http://www.serif.com/" style="fill-rule:evenodd;clip-rule:evenodd;stroke-linejoin:round;stroke-miterlimit:1.41421;">
    <path d="M12.136,11.438c2.115,0.746 3.173,1.379 3.173,1.897l0,1.649l-14.622,0l0,-1.649c0,-0.518 1.058,-1.151 3.173,-1.897c0.975,-0.353 1.639,-0.711 1.991,-1.074c0.353,-0.363 0.529,-0.855 0.529,-1.477c0,-0.229 -0.114,-0.483 -0.342,-0.763c-0.228,-0.28 -0.394,-0.658 -0.498,-1.135c-0.02,-0.125 -0.067,-0.218 -0.14,-0.28c-0.072,-0.062 -0.145,-0.104 -0.217,-0.125c-0.073,-0.02 -0.146,-0.109 -0.218,-0.264c-0.073,-0.156 -0.119,-0.379 -0.14,-0.669c0,-0.166 0.026,-0.301 0.078,-0.404c0.051,-0.104 0.098,-0.166 0.14,-0.187l0.062,-0.062c-0.083,-0.519 -0.145,-0.975 -0.187,-1.369c-0.041,-0.56 0.171,-1.141 0.638,-1.742c0.467,-0.602 1.281,-0.903 2.442,-0.903c1.162,0 1.981,0.301 2.458,0.903c0.477,0.601 0.684,1.182 0.622,1.742l-0.187,1.369c0.187,0.083 0.28,0.3 0.28,0.653c-0.02,0.29 -0.067,0.513 -0.14,0.669c-0.072,0.155 -0.145,0.244 -0.217,0.264c-0.073,0.021 -0.146,0.063 -0.218,0.125c-0.073,0.062 -0.119,0.155 -0.14,0.28c-0.083,0.498 -0.244,0.881 -0.482,1.151c-0.239,0.27 -0.358,0.518 -0.358,0.747c0,0.622 0.181,1.114 0.544,1.477c0.363,0.363 1.022,0.721 1.976,1.074Z" style="fill-rule:nonzero;"/>
</svg>
