<?xml version="1.0" encoding="UTF-8" standalone="no"?>
<!DOCTYPE svg PUBLIC "-//W3C//DTD SVG 1.1//EN" "http://www.w3.org/Graphics/SVG/1.1/DTD/svg11.dtd">
<svg width="100%" height="100%" viewBox="0 0 16 16" version="1.1" xmlns="http://www.w3.org/2000/svg" xmlns:xlink="http://www.w3.org/1999/xlink" xml:space="preserve" xmlns:serif="http://www.serif.com/" style="fill-rule:evenodd;clip-rule:evenodd;stroke-linejoin:round;stroke-miterlimit:1.41421;">
    <path d="M12.2,2c0.28,0 0.525,0.105 0.735,0.315c0.21,0.21 0.315,0.455 0.315,0.735l0,11.4c0,0.3 -0.105,0.55 -0.315,0.75c-0.21,0.2 -0.455,0.3 -0.735,0.3l-8.4,0c-0.28,0 -0.525,-0.1 -0.735,-0.3c-0.21,-0.2 -0.315,-0.45 -0.315,-0.75l0,-11.4c0,-0.28 0.105,-0.525 0.315,-0.735c0.21,-0.21 0.455,-0.315 0.735,-0.315l0.9,2.25l6.6,0l0.9,-2.25Zm-1.5,1.5l-5.4,0l-0.66,-1.5l1.62,0l0.54,-1.5l2.4,0l0.54,1.5l1.65,0l-0.69,1.5Z" style="fill-rule:nonzero;"/>
</svg>
