<?xml version="1.0" encoding="UTF-8" standalone="no"?>
<!DOCTYPE svg PUBLIC "-//W3C//DTD SVG 1.1//EN" "http://www.w3.org/Graphics/SVG/1.1/DTD/svg11.dtd">
<svg width="100%" height="100%" viewBox="0 0 16 16" version="1.1" xmlns="http://www.w3.org/2000/svg" xmlns:xlink="http://www.w3.org/1999/xlink" xml:space="preserve" xmlns:serif="http://www.serif.com/" style="fill-rule:evenodd;clip-rule:evenodd;stroke-linejoin:round;stroke-miterlimit:1.41421;">
    <path d="M13.665,8c0,0.8 0.444,1.478 1.333,2.033c-0.133,0.445 -0.322,0.9 -0.567,1.367c-0.777,-0.2 -1.533,0.044 -2.266,0.733c-0.6,0.645 -0.789,1.4 -0.567,2.267c-0.444,0.222 -0.911,0.422 -1.4,0.6c-0.511,-0.911 -1.244,-1.367 -2.2,-1.367c-0.955,0 -1.689,0.456 -2.2,1.367c-0.489,-0.178 -0.955,-0.378 -1.4,-0.6c0.222,-0.889 0.033,-1.644 -0.567,-2.267c-0.6,-0.6 -1.355,-0.789 -2.266,-0.566c-0.156,-0.289 -0.345,-0.745 -0.567,-1.367c0.911,-0.578 1.367,-1.311 1.367,-2.2c0,-0.8 -0.456,-1.489 -1.367,-2.067c0.222,-0.622 0.411,-1.077 0.567,-1.366c0.822,0.2 1.578,-0.045 2.266,-0.734c0.6,-0.622 0.789,-1.377 0.567,-2.266c0.467,-0.245 0.933,-0.434 1.4,-0.567c0.511,0.889 1.245,1.333 2.2,1.333c0.956,0 1.689,-0.444 2.2,-1.333c0.467,0.133 0.933,0.322 1.4,0.567c-0.222,0.866 -0.033,1.622 0.567,2.266c0.733,0.689 1.489,0.934 2.266,0.734c0.245,0.466 0.434,0.922 0.567,1.366c-0.889,0.556 -1.333,1.245 -1.333,2.067Zm-5.667,3.033c0.845,0 1.561,-0.294 2.15,-0.883c0.589,-0.589 0.883,-1.306 0.883,-2.15c0,-0.844 -0.294,-1.567 -0.883,-2.167c-0.589,-0.6 -1.305,-0.9 -2.15,-0.9c-0.844,0 -1.561,0.3 -2.15,0.9c-0.589,0.6 -0.883,1.323 -0.883,2.167c0,0.844 0.294,1.561 0.883,2.15c0.589,0.589 1.306,0.883 2.15,0.883Z" style="fill-rule:nonzero;"/>
</svg>
