<?xml version="1.0" encoding="UTF-8" standalone="no"?>
<!DOCTYPE svg PUBLIC "-//W3C//DTD SVG 1.1//EN" "http://www.w3.org/Graphics/SVG/1.1/DTD/svg11.dtd">
<svg width="100%" height="100%" viewBox="0 0 16 16" version="1.1" xmlns="http://www.w3.org/2000/svg" xmlns:xlink="http://www.w3.org/1999/xlink" xml:space="preserve" xmlns:serif="http://www.serif.com/" style="fill-rule:evenodd;clip-rule:evenodd;stroke-linejoin:round;stroke-miterlimit:1.41421;">
    <path d="M1,4.067c-0.356,-0.2 -0.511,-0.423 -0.467,-0.667c0.023,-0.156 0.167,-0.233 0.434,-0.233l14.1,0c0.422,0 0.533,0.177 0.333,0.533c-0.089,0.156 -0.222,0.278 -0.4,0.367c-0.156,0.066 -1.222,0.633 -3.2,1.7c-1.978,1.066 -2.989,1.611 -3.033,1.633c-0.178,0.111 -0.434,0.167 -0.767,0.167c-0.311,0 -0.567,-0.056 -0.767,-0.167c-0.044,-0.022 -1.055,-0.567 -3.033,-1.633c-1.978,-1.067 -3.044,-1.634 -3.2,-1.7Zm14.167,1.666c0.222,-0.111 0.333,-0.055 0.333,0.167l0,6.133c0,0.178 -0.094,0.356 -0.283,0.534c-0.189,0.177 -0.373,0.266 -0.55,0.266l-13.334,0c-0.177,0 -0.361,-0.089 -0.55,-0.266c-0.189,-0.178 -0.283,-0.356 -0.283,-0.534l0,-6.133c0,-0.222 0.111,-0.278 0.333,-0.167l6.4,3.334c0.2,0.111 0.456,0.166 0.767,0.166c0.311,0 0.567,-0.055 0.767,-0.166l6.4,-3.334Z" style="fill-rule:nonzero;"/>
</svg>
