<?xml version="1.0" encoding="UTF-8" standalone="no"?>
<!DOCTYPE svg PUBLIC "-//W3C//DTD SVG 1.1//EN" "http://www.w3.org/Graphics/SVG/1.1/DTD/svg11.dtd">
<svg width="100%" height="100%" viewBox="0 0 96 30" version="1.1" xmlns="http://www.w3.org/2000/svg" xmlns:xlink="http://www.w3.org/1999/xlink" xml:space="preserve" xmlns:serif="http://www.serif.com/" style="fill-rule:evenodd;clip-rule:evenodd;stroke-linejoin:round;stroke-miterlimit:1.41421;">
    <path d="M82.813,30l-4.912,0l0,-23.003l4.912,0l0,2.178c0.462,-1.419 2.407,-2.475 4.945,-2.475c4.715,0 8.242,3.795 8.242,8.614c0,4.785 -3.527,8.613 -8.242,8.613c-2.538,0 -4.483,-1.023 -4.945,-2.475l0,8.548Zm-38.604,-13.399c0.099,1.98 1.813,3.267 4.417,3.267c1.715,0 2.901,-0.528 4.055,-1.617l2.868,2.739c-2.208,2.277 -4.615,3.036 -7.153,3.036c-5.407,0 -9.099,-3.399 -9.099,-8.613l0,-0.132c0,-5.314 3.824,-8.713 9,-8.713c5.142,0 8.538,3.762 8.538,8.448c0,0 0,0.826 -0.066,1.585l-12.56,0Zm14.406,-9.604l4.912,0l0,9.505c0,1.914 0.989,3.135 2.869,3.135c1.78,0 3.065,-1.353 3.065,-3.3l0,-9.34l4.913,0l0,10.792c0,1.353 0.362,1.848 1.219,1.848c0.231,0 0.594,-0.033 0.825,-0.066l0,4.092c-0.495,0.165 -1.418,0.264 -2.209,0.264c-0.89,0 -1.879,-0.132 -2.703,-0.594c-0.528,-0.33 -1.187,-0.858 -1.484,-1.782c-0.725,1.419 -2.308,2.442 -4.879,2.442c-4.187,0 -6.528,-2.607 -6.528,-6.897l0,-10.099Zm-34.747,0l0,10.792c0,1.188 0.264,1.749 1.121,1.749c0.198,0 0.527,-0.033 0.593,-0.066l0,4.191c-0.165,0.066 -0.923,0.264 -2.275,0.264c-2.637,0 -4.351,-1.254 -4.351,-4.686l0,-7.754l-1.568,0l0,-4.49l6.48,0Zm-18.956,16.633l-4.912,0l0,-23.003l4.912,0l0,8.383c0.659,-1.419 2.44,-2.376 4.649,-2.376c3.956,0 6.164,2.607 6.164,6.897l0,4.192c0,1.221 0.198,1.749 1.088,1.749c0.198,0 0.429,-0.033 0.495,-0.033l0,4.158c-0.099,0.033 -0.824,0.231 -2.11,0.231c-2.604,0 -4.385,-1.254 -4.385,-4.752l0,-4.951c0,-1.914 -0.989,-3.135 -2.835,-3.135c-1.78,0 -3.066,1.353 -3.066,3.3l0,9.34Zm27.626,0l-4.912,0l0,-16.633l4.912,0l0,2.277c0.758,-1.683 2.539,-2.64 4.813,-2.64c0.462,0 1.022,0.066 1.286,0.099l0,4.62c-0.461,-0.099 -1.022,-0.165 -1.648,-0.165c-2.802,0 -4.451,1.617 -4.451,4.324l0,8.118Zm54.33,-4.158c2.374,0 4.22,-1.815 4.22,-4.158c0,-2.344 -1.846,-4.159 -4.22,-4.159c-2.407,0 -4.352,1.815 -4.352,4.159c0,2.343 1.945,4.158 4.352,4.158Zm-34.978,-6.073c0,-1.518 -1.615,-2.772 -3.593,-2.772c-2.143,0 -3.89,1.221 -4.022,2.772l7.615,0Zm-30.495,-7.821c1.55,0 2.803,-1.222 2.803,-2.773c0,-1.584 -1.253,-2.805 -2.803,-2.805c-1.516,0 -2.802,1.221 -2.802,2.805c0,1.551 1.286,2.773 2.802,2.773Z" style="fill-rule:nonzero;"/>
</svg>
