<?xml version="1.0" encoding="UTF-8" standalone="no"?>
<!DOCTYPE svg PUBLIC "-//W3C//DTD SVG 1.1//EN" "http://www.w3.org/Graphics/SVG/1.1/DTD/svg11.dtd">
<svg width="100%" height="100%" viewBox="0 0 16 16" version="1.1" xmlns="http://www.w3.org/2000/svg" xmlns:xlink="http://www.w3.org/1999/xlink" xml:space="preserve" xmlns:serif="http://www.serif.com/" style="fill-rule:evenodd;clip-rule:evenodd;stroke-linejoin:round;stroke-miterlimit:1.41421;">
    <path d="M13.908,3.97c0.205,1.183 0.061,2.28 -0.431,3.291c-0.492,1.01 -1.261,1.607 -2.307,1.79c-0.677,0.123 -1.344,0.133 -2,0.031l-1.815,2.969l-1.077,0.184l-1.599,2.541c-0.144,0.285 -0.38,0.449 -0.708,0.489l-1.169,0.215c-0.123,0.04 -0.236,0.02 -0.338,-0.062c-0.103,-0.081 -0.164,-0.193 -0.185,-0.336l-0.246,-1.5c-0.082,-0.306 -0.02,-0.592 0.185,-0.857l3.968,-5.908c-0.246,-0.511 -0.441,-1.123 -0.584,-1.837c-0.185,-1.082 0.087,-2.036 0.815,-2.862c0.728,-0.827 1.676,-1.342 2.845,-1.546c1.087,-0.204 2.087,0.026 3,0.689c0.912,0.663 1.461,1.566 1.646,2.709Zm-1.938,1.163c0.307,-0.449 0.415,-0.944 0.323,-1.485c-0.093,-0.54 -0.354,-0.964 -0.785,-1.27c-0.431,-0.326 -0.902,-0.439 -1.415,-0.337c-0.513,0.102 -0.923,0.378 -1.23,0.827c-0.082,0.122 -0.144,0.24 -0.185,0.352c-0.041,0.112 -0.046,0.214 -0.015,0.306c0.03,0.092 0.056,0.173 0.076,0.245c0.021,0.071 0.088,0.158 0.2,0.26c0.113,0.102 0.206,0.179 0.277,0.23c0.072,0.051 0.185,0.132 0.339,0.245c0.154,0.112 0.271,0.199 0.353,0.26c0.062,0.041 0.175,0.122 0.339,0.245c0.164,0.122 0.282,0.204 0.354,0.245c0.071,0.04 0.169,0.102 0.292,0.183c0.123,0.082 0.22,0.123 0.292,0.123c0.072,0 0.159,-0.005 0.262,-0.016c0.102,-0.01 0.194,-0.051 0.276,-0.122c0.083,-0.072 0.165,-0.168 0.247,-0.291Z" style="fill-rule:nonzero;"/>
</svg>
