<?xml version="1.0" encoding="UTF-8" standalone="no"?>
<!DOCTYPE svg PUBLIC "-//W3C//DTD SVG 1.1//EN" "http://www.w3.org/Graphics/SVG/1.1/DTD/svg11.dtd">
<svg width="100%" height="100%" viewBox="0 0 16 16" version="1.1" xmlns="http://www.w3.org/2000/svg" xmlns:xlink="http://www.w3.org/1999/xlink" xml:space="preserve" xmlns:serif="http://www.serif.com/" style="fill-rule:evenodd;clip-rule:evenodd;stroke-linejoin:round;stroke-miterlimit:1.41421;">
    <path d="M15.42,13.831c0.104,0.167 0.104,0.343 0,0.53c-0.104,0.167 -0.26,0.25 -0.468,0.25l-13.908,0c-0.187,0 -0.332,-0.083 -0.436,-0.25c-0.135,-0.187 -0.146,-0.363 -0.031,-0.53l6.954,-12.193c0.083,-0.187 0.239,-0.28 0.467,-0.28c0.229,0 0.385,0.093 0.468,0.28l6.954,12.193Zm-6.548,-0.779l0,-1.559l-1.716,0l0,1.559l1.716,0Zm0,-2.713l0,-4.678l-1.716,0l0,4.678l1.716,0Z" style="fill-rule:nonzero;"/>
</svg>
